<svg width="50" height="65" viewBox="0 0 50 65" fill="none" xmlns="http://www.w3.org/2000/svg">
<path d="M15.2174 29.8239C12.3346 29.8239 9.56988 28.5147 7.53144 26.1842C5.49301 23.8538 4.34782 20.693 4.34782 17.3973V7.45598C4.34782 6.79683 4.57686 6.16468 4.98455 5.69859C5.39224 5.2325 5.94518 4.97065 6.52174 4.97065H8.69565C9.27221 4.97065 9.82515 4.70881 10.2328 4.24272C10.6405 3.77663 10.8696 3.14448 10.8696 2.48533C10.8696 1.82618 10.6405 1.19402 10.2328 0.727935C9.82515 0.261846 9.27221 0 8.69565 0H6.52174C4.79206 0 3.13324 0.785539 1.91017 2.18381C0.68711 3.58207 0 5.47853 0 7.45598V17.3973C0.00279439 20.205 0.601678 22.9701 1.74522 25.4549C2.88875 27.9397 4.54277 30.0701 6.56521 31.6631C8.50832 33.6216 10.0841 36.0099 11.1976 38.6839C12.311 41.3579 12.9389 44.2621 13.0435 47.2212C13.0435 51.8352 14.6467 56.2603 17.5005 59.5229C20.3544 62.7856 24.225 64.6185 28.2609 64.6185C32.2968 64.6185 36.1674 62.7856 39.0212 59.5229C41.875 56.2603 43.4782 51.8352 43.4782 47.2212V44.3879C45.5275 43.783 47.3134 42.3444 48.5013 40.3418C49.6891 38.3392 50.1974 35.91 49.9307 33.5097C49.664 31.1093 48.6407 28.9025 47.0527 27.303C45.4646 25.7035 43.4208 24.821 41.3043 24.821C39.1879 24.821 37.1441 25.7035 35.556 27.303C33.9679 28.9025 32.9447 31.1093 32.678 33.5097C32.4113 35.91 32.9195 38.3392 34.1074 40.3418C35.2952 42.3444 37.0812 43.783 39.1304 44.3879V47.2212C39.1304 50.5169 37.9852 53.6777 35.9468 56.0082C33.9084 58.3386 31.1436 59.6478 28.2609 59.6478C25.3781 59.6478 22.6134 58.3386 20.5749 56.0082C18.5365 53.6777 17.3913 50.5169 17.3913 47.2212C17.5013 44.2584 18.1361 41.352 19.2571 38.6778C20.378 36.0036 21.962 33.6172 23.913 31.6631C25.9274 30.0646 27.573 27.9318 28.7088 25.4473C29.8446 22.9628 30.4368 20.2006 30.4348 17.3973V7.45598C30.4348 5.47853 29.7477 3.58207 28.5246 2.18381C27.3015 0.785539 25.6427 0 23.913 0H21.7391C21.1626 0 20.6096 0.261846 20.2019 0.727935C19.7942 1.19402 19.5652 1.82618 19.5652 2.48533C19.5652 3.14448 19.7942 3.77663 20.2019 4.24272C20.6096 4.70881 21.1626 4.97065 21.7391 4.97065H23.913C24.4896 4.97065 25.0425 5.2325 25.4502 5.69859C25.8579 6.16468 26.0869 6.79683 26.0869 7.45598V17.3973C26.0869 19.0292 25.8058 20.6451 25.2596 22.1528C24.7133 23.6604 23.9127 25.0303 22.9033 26.1842C21.894 27.3382 20.6957 28.2535 19.377 28.878C18.0582 29.5025 16.6448 29.8239 15.2174 29.8239ZM41.3043 39.7652C40.1512 39.7652 39.0453 39.2415 38.23 38.3093C37.4146 37.3772 36.9565 36.1129 36.9565 34.7946C36.9565 33.4763 37.4146 32.212 38.23 31.2798C39.0453 30.3476 40.1512 29.8239 41.3043 29.8239C42.4574 29.8239 43.5633 30.3476 44.3787 31.2798C45.1941 32.212 45.6522 33.4763 45.6522 34.7946C45.6522 36.1129 45.1941 37.3772 44.3787 38.3093C43.5633 39.2415 42.4574 39.7652 41.3043 39.7652Z" fill="#762991"/>
</svg>
