<svg width="85" height="70" viewBox="0 0 85 70" fill="none" xmlns="http://www.w3.org/2000/svg">
<g clip-path="url(#clip0_749_447)">
<rect width="85" height="70" fill="white"/>
<path fill-rule="evenodd" clip-rule="evenodd" d="M51.211 12.0808C48.4241 12.7212 46.1944 14.7605 45.3557 17.4361C44.4723 20.2544 45.266 23.3604 47.3863 25.3813C48.0861 26.0483 48.5983 26.4061 49.471 26.8379C49.9237 27.0619 50.0669 27.1692 50.0311 27.2579C50.0047 27.3233 49.9002 27.7 49.7989 28.0948C49.4675 29.3864 49.349 30.4038 49.349 31.9569C49.349 33.5634 49.4644 34.503 49.8344 35.9105C49.9588 36.3842 50.0553 36.7756 50.0488 36.7805C50.0423 36.7852 49.7376 36.9386 49.3717 37.1212C47.2616 38.1744 45.7481 40.0856 45.1684 42.4291C45.0771 42.7981 45.0368 43.3094 45.0341 44.1309C45.0308 45.1199 45.0592 45.4165 45.2141 46.0099C45.4683 46.9835 45.7882 47.6685 46.0431 47.7847C46.3133 47.9078 46.6305 47.7943 46.7848 47.5192C46.8923 47.3278 46.8897 47.2736 46.7571 46.933C45.971 44.915 45.9782 43.1021 46.779 41.3928C47.6824 39.4643 49.1909 38.2074 51.2554 37.6631C52.5387 37.3247 54.2658 37.4712 55.51 38.0241C57.0071 38.6894 58.3103 39.9925 58.9695 41.4835C59.4774 42.6323 59.6477 44.4204 59.362 45.605C58.8632 47.6734 57.5325 49.3048 55.6211 50.1914C54.6113 50.6596 54.0414 50.7792 52.8155 50.7802C51.9525 50.7808 51.6442 50.7485 51.1327 50.6036C50.2836 50.3632 49.3635 49.8973 48.7113 49.3774C48.0966 48.8875 47.7744 48.8184 47.4962 49.1171C47.1475 49.4915 47.3201 49.8123 48.2367 50.493C49.6326 51.5297 51.4961 52.0767 53.2802 51.9734C56.1127 51.8094 58.5876 50.1706 59.8627 47.6148C60.0452 47.2488 60.1985 46.9435 60.2033 46.9363C60.2082 46.9292 60.6023 47.0239 61.0791 47.1467C63.5142 47.774 66.4524 47.7873 68.8383 47.182C69.2514 47.0772 69.65 46.9722 69.7239 46.9487C69.8291 46.9154 69.8987 47.0051 70.0419 47.3582C70.6256 48.7987 72.1767 50.4028 73.7528 51.1962C78.131 53.4 83.5781 50.8704 84.796 46.0679C85.0558 45.0434 85.0669 43.2725 84.8194 42.2939C84.2447 40.0208 82.8217 38.2283 80.747 37.1646C80.3441 36.9579 80.007 36.7834 79.9978 36.7768C79.9888 36.7701 80.0652 36.4596 80.1677 36.0869C80.8858 33.4761 80.8729 30.2688 80.134 27.6953C80.0482 27.3967 79.9863 27.1464 79.9963 27.1392C80.0063 27.1319 80.3104 26.9792 80.6721 26.7999C82.7309 25.779 84.2274 23.9323 84.7965 21.7105C85.068 20.6506 85.0678 18.9175 84.796 17.8459C84.1313 15.2249 82.1545 13.1361 79.5057 12.2557C78.8603 12.0412 78.7911 12.0346 77.1967 12.0346C75.597 12.0346 75.5353 12.0406 74.8877 12.2579C73.2334 12.8132 71.9571 13.7186 70.9092 15.0803C70.6135 15.4645 69.9959 16.5462 69.8713 16.8982C69.8489 16.9616 69.5826 16.921 68.9783 16.762C67.572 16.3919 66.6322 16.2764 65.0257 16.2764C63.473 16.2764 62.4558 16.3949 61.1645 16.7264C60.7698 16.8277 60.3935 16.9321 60.3282 16.9584C60.2396 16.9942 60.1307 16.843 59.8977 16.361C58.8948 14.2858 57.0089 12.7487 54.738 12.1554C54.2217 12.0205 53.8976 11.9944 52.8204 12.0009C52.1074 12.0053 51.3832 12.0411 51.211 12.0808ZM54.4592 13.2878C56.482 13.8142 58.2021 15.2971 58.9922 17.1955C59.3653 18.0918 59.4909 18.7326 59.4916 19.7437C59.4927 21.2117 59.1194 22.4181 58.2951 23.6108C57.8613 24.2385 57.7982 24.5567 58.0607 24.7943C58.2657 24.9799 58.6399 24.9764 58.8509 24.7869C59.1244 24.5412 59.6245 23.7593 59.9424 23.0804C60.5414 21.8011 60.7958 20.3392 60.6488 19.0205C60.6023 18.6035 60.5643 18.2283 60.5643 18.1866C60.5643 18.0047 62.4746 17.5962 63.9248 17.4679C65.4976 17.3288 67.494 17.5312 69.0702 17.9895L69.5045 18.1159L69.4559 18.4201C69.037 21.0401 69.9207 23.6925 71.7976 25.4487C73.5659 27.1033 75.8782 27.8447 78.3413 27.5468L78.8596 27.4841L79.0297 28.1147C79.7008 30.6026 79.6984 33.274 79.0226 35.8164L78.8603 36.427L78.3024 36.3644C75.3356 36.032 72.6091 37.1778 70.9005 39.4749C70.0931 40.5604 69.6409 41.6793 69.4302 43.1131C69.3237 43.8376 69.3177 44.1167 69.3928 44.8707C69.4419 45.3637 69.4707 45.7784 69.4569 45.7922C69.3853 45.8638 67.8264 46.2133 67.0931 46.3222C66.0002 46.4845 64.0576 46.4848 62.945 46.3227C62.2009 46.2143 60.6646 45.8622 60.5839 45.7816C60.5684 45.7661 60.5954 45.3849 60.644 44.9345C60.8935 42.6162 60.0598 40.2871 58.3787 38.6055C56.6353 36.8617 54.3133 36.0773 51.7461 36.3647L51.1853 36.4275L51.0604 35.9977C50.6031 34.4242 50.4017 32.4294 50.5402 30.8459C50.6724 29.3351 51.0764 27.4937 51.2753 27.495C51.326 27.4954 51.6845 27.5324 52.072 27.5772C53.3811 27.7289 55.0731 27.4265 56.2594 26.8289C56.9863 26.4628 57.1579 26.1062 56.7937 25.7183C56.563 25.4728 56.4136 25.4881 55.5941 25.8406C54.3959 26.3561 53.2266 26.5413 52.0698 26.3989C50.7014 26.2304 49.3668 25.6182 48.3557 24.6952C46.397 22.907 45.6828 20.1569 46.5222 17.6349C46.856 16.6317 47.2923 15.9519 48.1585 15.0855C49.2313 14.0124 50.336 13.4209 51.7326 13.1719C52.3252 13.0662 53.8584 13.1313 54.4592 13.2878ZM78.9059 13.3155C80.3949 13.7092 81.8295 14.7266 82.7072 16.0114C83.0712 16.5443 83.5335 17.5719 83.6994 18.2171C83.9061 19.021 83.89 20.5904 83.6664 21.427C82.5941 25.4389 78.1957 27.5515 74.4511 25.8532C72.642 25.0327 71.2497 23.3779 70.7273 21.427C70.5019 20.585 70.4868 19.0183 70.6964 18.2171C71.2436 16.1261 72.7523 14.3675 74.6716 13.5832C75.9243 13.0714 77.5852 12.9663 78.9059 13.3155ZM77.7007 15.3098C77.0851 15.4759 76.5704 15.9353 76.2903 16.5689C76.1519 16.8819 76.1114 17.156 76.0793 17.9977L76.0396 19.0391H75.575C75.1624 19.0391 75.084 19.0656 74.8737 19.276C74.6839 19.4658 74.647 19.5551 74.6874 19.7261C74.7723 20.085 75.0014 20.2135 75.5566 20.2135H76.0515L76.0763 22.0844C76.0988 23.7943 76.1138 23.9694 76.25 24.1199C76.4412 24.331 76.9229 24.344 77.1048 24.143C77.2146 24.0216 77.2359 23.7331 77.2539 22.127L77.275 20.2526L77.8791 20.2135C78.5662 20.1689 78.7288 20.0653 78.7401 19.6643C78.7456 19.4732 78.6914 19.3561 78.5352 19.2218C78.3561 19.0677 78.2364 19.0391 77.77 19.0391H77.217L77.2495 18.0615C77.277 17.2355 77.3066 17.0504 77.4406 16.8676C77.6905 16.5267 78.0645 16.3775 78.6694 16.3774C78.9628 16.3774 79.2727 16.3399 79.3581 16.2942C79.7334 16.0933 79.6981 15.4723 79.301 15.2914C79.0492 15.1766 78.1564 15.1869 77.7007 15.3098ZM53.3788 16.3482C52.876 16.5321 52.3061 17.1418 52.1377 17.6762C52.0019 18.107 51.995 18.114 51.7446 18.0734C51.2826 17.9984 50.6716 17.6257 50.0953 17.0673C49.5964 16.5838 49.5014 16.5232 49.3126 16.5679C48.8475 16.6781 48.5957 17.3132 48.5323 18.5358C48.4694 19.7492 48.7354 20.5125 49.501 21.3154L49.9239 21.7588L49.6737 21.8089C49.5362 21.8364 49.1813 21.8814 48.8852 21.909C48.2819 21.965 48.1193 22.0965 48.1193 22.5283C48.1193 22.829 48.2648 22.9663 48.8656 23.2324C49.6305 23.5712 50.4123 23.7367 51.2431 23.7353C52.7448 23.7331 53.8187 23.3004 54.8151 22.2964C55.7701 21.3343 56.1885 20.4249 56.3387 18.9855C56.3964 18.4326 56.4584 18.2007 56.6071 17.9814C56.8883 17.5669 57.13 16.8735 57.0728 16.6454C57.0147 16.4137 56.7616 16.2207 56.516 16.2207C56.418 16.2207 56.1685 16.3153 55.9616 16.4308L55.5854 16.6409L55.1984 16.4521C54.7116 16.2145 53.8751 16.1668 53.3788 16.3482ZM54.8388 17.6304C55.1871 17.8827 55.2066 17.9491 55.1734 18.7651C55.1021 20.5235 54.0045 21.9515 52.3512 22.4373C51.8318 22.5899 50.9666 22.6069 51.2064 22.4597C51.5541 22.2463 51.7198 22.0191 51.7198 21.7558C51.7198 21.4517 51.6204 21.3473 51.0307 21.0321C50.2004 20.5885 49.7574 19.8882 49.7002 18.9291L49.6632 18.3101L49.9283 18.5091C50.3442 18.8212 50.8215 19.036 51.4647 19.2006C52.7464 19.5284 53.2069 19.3276 53.2069 18.4408C53.2069 17.5223 54.0867 17.0854 54.8388 17.6304ZM68.9153 26.0089C68.7769 26.1178 68.706 26.258 68.6894 26.4552C68.6657 26.7368 68.6471 26.752 67.7927 27.188C66.2853 27.9572 64.0166 28.743 63.7644 28.5832C63.7048 28.5455 62.9515 28.514 62.0906 28.5135C60.3333 28.5122 60.1316 28.5598 59.8027 29.0522C59.6303 29.3104 59.6251 29.3735 59.6254 31.2052C59.6256 32.9499 59.6373 33.1114 59.7812 33.3472C60.0094 33.7218 60.3722 33.9135 60.8532 33.9138C61.0766 33.914 61.2753 33.9405 61.2946 33.9728C61.314 34.0052 61.3718 34.9123 61.4231 35.9888C61.5015 37.6341 61.5384 37.9772 61.6547 38.1418C61.8467 38.4134 62.2914 38.4498 62.5281 38.213C62.7161 38.025 62.7157 38.0949 62.5479 34.8842L62.4983 33.9361L63.312 33.8966C64.0104 33.8626 64.2143 33.8831 64.7517 34.0405C65.5359 34.2703 65.6619 34.2709 65.873 34.0461C66.0823 33.8233 66.095 33.4373 65.899 33.2599C65.7578 33.132 65.1593 32.9104 64.4974 32.7407L64.1647 32.6555V31.2243V29.7932L64.9239 29.5787C65.9516 29.2883 67.0383 28.8757 67.8614 28.4631C68.2373 28.2748 68.5806 28.1207 68.6246 28.1207C68.6775 28.1207 68.7044 29.1746 68.7044 31.2481V34.3756L68.2039 34.1413C67.6506 33.8823 67.3751 33.8915 67.1763 34.1754C66.8828 34.5945 67.0858 34.8889 68.0011 35.3716C68.6686 35.7236 68.7044 35.7557 68.7044 35.9996C68.7044 36.4978 69.2589 36.7468 69.6545 36.4264L69.8393 36.2767L69.8615 31.3963C69.8737 28.712 69.864 26.4356 69.8399 26.3377C69.7778 26.0847 69.519 25.8503 69.302 25.8503C69.2002 25.8503 69.0261 25.9217 68.9153 26.0089ZM62.9907 31.2131V32.7398H61.8949H60.7991V31.2131V29.6865H61.8949H62.9907V31.2131ZM78.6695 37.6348C81.006 38.1131 83.0156 40.0643 83.6667 42.4868C83.925 43.4478 83.9064 44.9821 83.6252 45.9157C82.6006 49.3173 79.364 51.3413 75.9726 50.7011C73.4838 50.2314 71.5271 48.4322 70.7679 45.9157C70.5871 45.3163 70.5603 45.0899 70.5609 44.1701C70.5617 42.9284 70.7151 42.2269 71.2028 41.2339C72.5831 38.4238 75.5463 36.9955 78.6695 37.6348ZM73.9876 40.1294C73.6902 40.2592 73.1886 40.8107 73.109 41.0952C73.0757 41.2147 73.0484 42.616 73.0484 44.2092V47.1059L73.2441 47.4552C73.4598 47.8402 73.8184 48.1193 74.2523 48.2399C74.6271 48.344 79.7663 48.344 80.1411 48.2399C80.575 48.1193 80.9336 47.8402 81.1494 47.4552L81.345 47.1059V44.1309C81.345 40.8712 81.3561 40.956 80.8631 40.4583C80.4347 40.0259 80.389 40.0205 77.1796 40.0238C74.9197 40.0261 74.1671 40.051 73.9876 40.1294ZM51.1022 41.0695C50.7208 41.2809 50.708 41.3768 50.705 44.037C50.7021 46.6841 50.7257 46.8698 51.0893 47.0644C51.4853 47.2764 51.7306 47.1771 53.9095 45.9226C55.1779 45.1923 56.0847 44.6208 56.1618 44.5032C56.325 44.254 56.3272 43.8537 56.1667 43.6126C55.9867 43.3425 51.8048 40.9595 51.5168 40.9629C51.3917 40.9645 51.2051 41.0124 51.1022 41.0695ZM80.0939 41.3816C80.1998 41.5433 80.2131 41.9251 80.1935 44.2455C80.1721 46.7915 80.1635 46.9284 80.0191 47.034C79.7945 47.1981 74.5989 47.1981 74.3744 47.034C74.2299 46.9284 74.2213 46.7915 74.1999 44.2455C74.1803 41.9251 74.1936 41.5433 74.2995 41.3816L74.4217 41.1951H77.1967H79.9717L80.0939 41.3816ZM76.5803 42.4844C75.5977 42.8347 75.1583 44.011 75.6542 44.9636C76.303 46.2097 78.0904 46.2097 78.7392 44.9636C79.4897 43.522 78.111 41.9386 76.5803 42.4844ZM53.4207 43.2782C54.1426 43.6951 54.7426 44.0435 54.7541 44.0524C54.7656 44.0612 54.202 44.3972 53.5017 44.7989C52.8015 45.2008 52.1492 45.58 52.0524 45.6417L51.8763 45.7538V44.0924C51.8763 42.6564 51.892 42.437 51.9923 42.4755C52.0562 42.5 52.6989 42.8612 53.4207 43.2782ZM77.5916 43.7359C78.1338 44.2782 77.3499 45.0732 76.7908 44.5479C76.683 44.4466 76.6097 44.2865 76.6097 44.1528C76.6097 43.8697 76.9239 43.5437 77.1967 43.5437C77.3082 43.5437 77.4859 43.6302 77.5916 43.7359Z" fill="#F0F1F1"/>
<path d="M2.88648 34.5092V15.6834C2.88648 14.7065 3.27751 13.7696 3.97356 13.0788C4.66961 12.3881 5.61366 12 6.59802 12H31.8365C32.8209 12 33.7649 12.3881 34.461 13.0788C35.157 13.7696 35.5481 14.7065 35.5481 15.6834V34.5092M2.88648 34.5092H35.5481M2.88648 34.5092L0.139936 44.1487C-0.0160555 44.6964 -0.0420362 45.2725 0.0640324 45.8318C0.170101 46.3912 0.405333 46.9185 0.751269 47.3724C1.09721 47.8264 1.54443 48.1946 2.05786 48.4482C2.57129 48.7018 3.13694 48.8338 3.71044 48.834H34.7241C35.2976 48.8338 35.8632 48.7018 36.3767 48.4482C36.8901 48.1946 37.3373 47.8264 37.6833 47.3724C38.0292 46.9185 38.2644 46.3912 38.3705 45.8318C38.4766 45.2725 38.4506 44.6964 38.2946 44.1487L35.5481 34.5092" stroke="#F0F1F1" stroke-width="1.5"/>
<path d="M17.3613 43.3083H21.0728M22.9286 19.3662L26.6401 23.0496L22.9286 26.733M15.5055 19.3662L11.7939 23.0496L15.5055 26.733" stroke="white" stroke-width="1.5" stroke-linecap="round" stroke-linejoin="round"/>
</g>
<defs>
<clipPath id="clip0_749_447">
<rect width="85" height="70" fill="white"/>
</clipPath>
</defs>
</svg>
